<svg width="96" height="57" viewBox="0 0 96 57" fill="none" xmlns="http://www.w3.org/2000/svg">
<path d="M40.8097 37.2166L26.0537 27.3955L20.2896 50.3974L40.8097 37.2166Z" fill="white" fill-opacity="0.9"/>
<path d="M53.9518 37.2166L68.2467 27.3955L71.4746 38.8965L74.7025 50.3974L53.9518 37.2166Z" fill="white" fill-opacity="0.9"/>
<path d="M72.858 56.3418L48.6489 40.318L52.3379 38.2504L74.7025 52.7235L72.858 56.3418Z" fill="white"/>
<path d="M22.1341 56.3418L46.1127 40.318L42.6542 38.2504L20.2896 52.7235L22.1341 56.3418Z" fill="white"/>
<path d="M47.496 38.2504L95.4532 7.23656L92.917 2.32604L47.496 31.0138L2.5362 2.32604L0 7.23656L47.496 38.2504Z" fill="white"/>
<path d="M47.496 27.9124L89.6891 0.775345L88.7669 0C64.1741 9.54388 52.7224 10.777 47.496 20.4174C42.4175 10.6197 31.8166 9.40796 6.68634 0L5.76408 0.775345L47.496 27.9124Z" fill="white" fill-opacity="0.9"/>
</svg>
